<svg id="visual" viewBox="0 0 900 600" width="900" height="600" xmlns="http://www.w3.org/2000/svg" xmlns:xlink="http://www.w3.org/1999/xlink" version="1.1"><rect x="0" y="0" width="900" height="600" fill="#d7d7d7"></rect><path d="M0 423L13.7 420.5C27.3 418 54.7 413 82 407.7C109.3 402.3 136.7 396.7 163.8 395C191 393.3 218 395.7 245.2 407.8C272.3 420 299.7 442 327 449.5C354.3 457 381.7 450 409 448.3C436.3 446.7 463.7 450.3 491 444.5C518.3 438.7 545.7 423.3 573 425.8C600.3 428.3 627.7 448.7 654.8 453C682 457.3 709 445.7 736.2 436C763.3 426.3 790.7 418.7 818 414C845.3 409.3 872.7 407.7 886.3 406.8L900 406L900 601L886.3 601C872.7 601 845.3 601 818 601C790.7 601 763.3 601 736.2 601C709 601 682 601 654.8 601C627.7 601 600.3 601 573 601C545.7 601 518.3 601 491 601C463.7 601 436.3 601 409 601C381.7 601 354.3 601 327 601C299.7 601 272.3 601 245.2 601C218 601 191 601 163.8 601C136.7 601 109.3 601 82 601C54.7 601 27.3 601 13.7 601L0 601Z" fill="#55d0ff"></path><path d="M0 448L13.7 449.3C27.3 450.7 54.7 453.3 82 456.5C109.3 459.7 136.7 463.3 163.8 463.3C191 463.3 218 459.7 245.2 466.2C272.3 472.7 299.7 489.3 327 485.5C354.3 481.7 381.7 457.3 409 452.3C436.3 447.3 463.7 461.7 491 469.2C518.3 476.7 545.7 477.3 573 476.2C600.3 475 627.7 472 654.8 465.7C682 459.3 709 449.7 736.2 451.5C763.3 453.3 790.7 466.7 818 467C845.3 467.3 872.7 454.7 886.3 448.3L900 442L900 601L886.3 601C872.7 601 845.3 601 818 601C790.7 601 763.3 601 736.2 601C709 601 682 601 654.8 601C627.7 601 600.3 601 573 601C545.7 601 518.3 601 491 601C463.7 601 436.3 601 409 601C381.7 601 354.3 601 327 601C299.7 601 272.3 601 245.2 601C218 601 191 601 163.8 601C136.7 601 109.3 601 82 601C54.7 601 27.3 601 13.7 601L0 601Z" fill="#27b3cd"></path><path d="M0 506L13.7 510C27.3 514 54.7 522 82 526.5C109.3 531 136.7 532 163.8 534C191 536 218 539 245.2 534.7C272.3 530.3 299.7 518.7 327 512C354.3 505.3 381.7 503.7 409 506.2C436.3 508.7 463.7 515.3 491 515.3C518.3 515.3 545.7 508.7 573 507.2C600.3 505.7 627.7 509.3 654.8 515.8C682 522.3 709 531.7 736.2 529.3C763.3 527 790.7 513 818 511.5C845.3 510 872.7 521 886.3 526.5L900 532L900 601L886.3 601C872.7 601 845.3 601 818 601C790.7 601 763.3 601 736.2 601C709 601 682 601 654.8 601C627.7 601 600.3 601 573 601C545.7 601 518.3 601 491 601C463.7 601 436.3 601 409 601C381.7 601 354.3 601 327 601C299.7 601 272.3 601 245.2 601C218 601 191 601 163.8 601C136.7 601 109.3 601 82 601C54.7 601 27.3 601 13.7 601L0 601Z" fill="#0a959c"></path><path d="M0 537L13.7 536.2C27.3 535.3 54.7 533.7 82 534.5C109.3 535.3 136.7 538.7 163.8 540.5C191 542.3 218 542.7 245.2 540.7C272.3 538.7 299.7 534.3 327 534.3C354.3 534.3 381.7 538.7 409 543.3C436.3 548 463.7 553 491 556.2C518.3 559.3 545.7 560.7 573 562.3C600.3 564 627.7 566 654.8 566C682 566 709 564 736.2 563C763.3 562 790.7 562 818 556C845.3 550 872.7 538 886.3 532L900 526L900 601L886.3 601C872.7 601 845.3 601 818 601C790.7 601 763.3 601 736.2 601C709 601 682 601 654.8 601C627.7 601 600.3 601 573 601C545.7 601 518.3 601 491 601C463.7 601 436.3 601 409 601C381.7 601 354.3 601 327 601C299.7 601 272.3 601 245.2 601C218 601 191 601 163.8 601C136.7 601 109.3 601 82 601C54.7 601 27.3 601 13.7 601L0 601Z" fill="#0f766e"></path></svg>