<svg id="visual" viewBox="0 0 900 600" width="900" height="600" xmlns="http://www.w3.org/2000/svg" xmlns:xlink="http://www.w3.org/1999/xlink" version="1.1"><rect x="0" y="0" width="900" height="600" fill="#d7d7d7"></rect><path d="M0 466L13.7 453.3C27.3 440.7 54.7 415.3 82 411.5C109.3 407.7 136.7 425.3 163.8 428.8C191 432.3 218 421.7 245.2 414C272.3 406.3 299.7 401.7 327 409.2C354.3 416.7 381.7 436.3 409 439.5C436.3 442.7 463.7 429.3 491 421.3C518.3 413.3 545.7 410.7 573 406.3C600.3 402 627.7 396 654.8 400C682 404 709 418 736.2 418.5C763.3 419 790.7 406 818 412.2C845.3 418.3 872.7 443.7 886.3 456.3L900 469L900 601L886.3 601C872.7 601 845.3 601 818 601C790.7 601 763.3 601 736.2 601C709 601 682 601 654.8 601C627.7 601 600.3 601 573 601C545.7 601 518.3 601 491 601C463.7 601 436.3 601 409 601C381.7 601 354.3 601 327 601C299.7 601 272.3 601 245.2 601C218 601 191 601 163.8 601C136.7 601 109.3 601 82 601C54.7 601 27.3 601 13.7 601L0 601Z" fill="#55d0ff"></path><path d="M0 498L13.7 487.7C27.3 477.3 54.7 456.7 82 455.8C109.3 455 136.7 474 163.8 477.7C191 481.3 218 469.7 245.2 471C272.3 472.3 299.7 486.7 327 491.7C354.3 496.7 381.7 492.3 409 491C436.3 489.7 463.7 491.3 491 490.5C518.3 489.7 545.7 486.3 573 482.7C600.3 479 627.7 475 654.8 476.2C682 477.3 709 483.7 736.2 485.2C763.3 486.7 790.7 483.3 818 473.8C845.3 464.3 872.7 448.7 886.3 440.8L900 433L900 601L886.3 601C872.7 601 845.3 601 818 601C790.7 601 763.3 601 736.2 601C709 601 682 601 654.8 601C627.7 601 600.3 601 573 601C545.7 601 518.3 601 491 601C463.7 601 436.3 601 409 601C381.7 601 354.3 601 327 601C299.7 601 272.3 601 245.2 601C218 601 191 601 163.8 601C136.7 601 109.3 601 82 601C54.7 601 27.3 601 13.7 601L0 601Z" fill="#27b3cd"></path><path d="M0 489L13.7 487.5C27.3 486 54.7 483 82 491.2C109.3 499.3 136.7 518.7 163.8 527.3C191 536 218 534 245.2 530.5C272.3 527 299.7 522 327 523.8C354.3 525.7 381.7 534.3 409 532.2C436.3 530 463.7 517 491 517C518.3 517 545.7 530 573 533C600.3 536 627.7 529 654.8 519.8C682 510.7 709 499.3 736.2 497.8C763.3 496.3 790.7 504.7 818 511.3C845.3 518 872.7 523 886.3 525.5L900 528L900 601L886.3 601C872.7 601 845.3 601 818 601C790.7 601 763.3 601 736.2 601C709 601 682 601 654.8 601C627.7 601 600.3 601 573 601C545.7 601 518.3 601 491 601C463.7 601 436.3 601 409 601C381.7 601 354.3 601 327 601C299.7 601 272.3 601 245.2 601C218 601 191 601 163.8 601C136.7 601 109.3 601 82 601C54.7 601 27.3 601 13.7 601L0 601Z" fill="#0a959c"></path><path d="M0 569L13.7 568.5C27.3 568 54.7 567 82 566.2C109.3 565.3 136.7 564.7 163.8 561.2C191 557.7 218 551.3 245.2 552.3C272.3 553.3 299.7 561.7 327 566.3C354.3 571 381.7 572 409 569.5C436.3 567 463.7 561 491 560.7C518.3 560.3 545.7 565.7 573 568C600.3 570.3 627.7 569.7 654.8 565.8C682 562 709 555 736.2 555.7C763.3 556.3 790.7 564.7 818 567C845.3 569.3 872.7 565.7 886.3 563.8L900 562L900 601L886.3 601C872.7 601 845.3 601 818 601C790.7 601 763.3 601 736.2 601C709 601 682 601 654.8 601C627.7 601 600.3 601 573 601C545.7 601 518.3 601 491 601C463.7 601 436.3 601 409 601C381.7 601 354.3 601 327 601C299.7 601 272.3 601 245.2 601C218 601 191 601 163.8 601C136.7 601 109.3 601 82 601C54.7 601 27.3 601 13.7 601L0 601Z" fill="#0f766e"></path></svg>