<svg id="visual" viewBox="0 0 900 600" width="900" height="600" xmlns="http://www.w3.org/2000/svg" xmlns:xlink="http://www.w3.org/1999/xlink" version="1.1"><rect x="0" y="0" width="900" height="600" fill="#d7d7d7"></rect><path d="M0 422L13.7 426.8C27.3 431.7 54.7 441.3 82 437.8C109.3 434.3 136.7 417.7 163.8 410C191 402.3 218 403.7 245.2 405.3C272.3 407 299.7 409 327 408.2C354.3 407.3 381.7 403.7 409 412.3C436.3 421 463.7 442 491 451.3C518.3 460.7 545.7 458.3 573 453.3C600.3 448.3 627.7 440.7 654.8 438.5C682 436.3 709 439.7 736.2 433.7C763.3 427.7 790.7 412.3 818 412.2C845.3 412 872.7 427 886.3 434.5L900 442L900 601L886.3 601C872.7 601 845.3 601 818 601C790.7 601 763.3 601 736.2 601C709 601 682 601 654.8 601C627.7 601 600.3 601 573 601C545.7 601 518.3 601 491 601C463.7 601 436.3 601 409 601C381.7 601 354.3 601 327 601C299.7 601 272.3 601 245.2 601C218 601 191 601 163.8 601C136.7 601 109.3 601 82 601C54.7 601 27.3 601 13.7 601L0 601Z" fill="#55d0ff"></path><path d="M0 436L13.7 442.3C27.3 448.7 54.7 461.3 82 471.3C109.3 481.3 136.7 488.7 163.8 485.7C191 482.7 218 469.3 245.2 469.2C272.3 469 299.7 482 327 481.5C354.3 481 381.7 467 409 464.5C436.3 462 463.7 471 491 468.3C518.3 465.7 545.7 451.3 573 455.8C600.3 460.3 627.7 483.7 654.8 491.5C682 499.3 709 491.7 736.2 479.2C763.3 466.7 790.7 449.3 818 444.8C845.3 440.3 872.7 448.7 886.3 452.8L900 457L900 601L886.3 601C872.7 601 845.3 601 818 601C790.7 601 763.3 601 736.2 601C709 601 682 601 654.8 601C627.7 601 600.3 601 573 601C545.7 601 518.3 601 491 601C463.7 601 436.3 601 409 601C381.7 601 354.3 601 327 601C299.7 601 272.3 601 245.2 601C218 601 191 601 163.8 601C136.7 601 109.3 601 82 601C54.7 601 27.3 601 13.7 601L0 601Z" fill="#27b3cd"></path><path d="M0 505L13.7 503C27.3 501 54.7 497 82 499C109.3 501 136.7 509 163.8 508.8C191 508.7 218 500.3 245.2 496.7C272.3 493 299.7 494 327 498.2C354.3 502.3 381.7 509.7 409 509.8C436.3 510 463.7 503 491 501.5C518.3 500 545.7 504 573 509.5C600.3 515 627.7 522 654.8 525.3C682 528.7 709 528.3 736.2 526.5C763.3 524.7 790.7 521.3 818 518.3C845.3 515.3 872.7 512.7 886.3 511.3L900 510L900 601L886.3 601C872.7 601 845.3 601 818 601C790.7 601 763.3 601 736.2 601C709 601 682 601 654.8 601C627.7 601 600.3 601 573 601C545.7 601 518.3 601 491 601C463.7 601 436.3 601 409 601C381.7 601 354.3 601 327 601C299.7 601 272.3 601 245.2 601C218 601 191 601 163.8 601C136.7 601 109.3 601 82 601C54.7 601 27.3 601 13.7 601L0 601Z" fill="#0a959c"></path><path d="M0 570L13.7 563.8C27.3 557.7 54.7 545.3 82 545.5C109.3 545.7 136.7 558.3 163.8 565.2C191 572 218 573 245.2 569.5C272.3 566 299.7 558 327 554.3C354.3 550.7 381.7 551.3 409 547.8C436.3 544.3 463.7 536.7 491 532.2C518.3 527.7 545.7 526.3 573 532.8C600.3 539.3 627.7 553.7 654.8 556.3C682 559 709 550 736.2 543C763.3 536 790.7 531 818 536.2C845.3 541.3 872.7 556.7 886.3 564.3L900 572L900 601L886.3 601C872.7 601 845.3 601 818 601C790.7 601 763.3 601 736.2 601C709 601 682 601 654.8 601C627.7 601 600.3 601 573 601C545.7 601 518.3 601 491 601C463.7 601 436.3 601 409 601C381.7 601 354.3 601 327 601C299.7 601 272.3 601 245.2 601C218 601 191 601 163.8 601C136.7 601 109.3 601 82 601C54.7 601 27.3 601 13.7 601L0 601Z" fill="#0f766e"></path></svg>