<svg id="visual" viewBox="0 0 900 600" width="900" height="600" xmlns="http://www.w3.org/2000/svg" xmlns:xlink="http://www.w3.org/1999/xlink" version="1.1"><rect x="0" y="0" width="900" height="600" fill="#001220"></rect><path d="M0 346L21.5 365C43 384 86 422 128.8 438C171.7 454 214.3 448 257.2 434.8C300 421.7 343 401.3 385.8 402C428.7 402.7 471.3 424.3 514.2 421C557 417.7 600 389.3 642.8 391.8C685.7 394.3 728.3 427.7 771.2 442.7C814 457.7 857 454.3 878.5 452.7L900 451L900 601L878.5 601C857 601 814 601 771.2 601C728.3 601 685.7 601 642.8 601C600 601 557 601 514.2 601C471.3 601 428.7 601 385.8 601C343 601 300 601 257.2 601C214.3 601 171.7 601 128.8 601C86 601 43 601 21.5 601L0 601Z" fill="#191d34"></path><path d="M0 497L21.5 480C43 463 86 429 128.8 417.5C171.7 406 214.3 417 257.2 413.7C300 410.3 343 392.7 385.8 384.5C428.7 376.3 471.3 377.7 514.2 390.3C557 403 600 427 642.8 428.7C685.7 430.3 728.3 409.7 771.2 403.3C814 397 857 405 878.5 409L900 413L900 601L878.5 601C857 601 814 601 771.2 601C728.3 601 685.7 601 642.8 601C600 601 557 601 514.2 601C471.3 601 428.7 601 385.8 601C343 601 300 601 257.2 601C214.3 601 171.7 601 128.8 601C86 601 43 601 21.5 601L0 601Z" fill="#1d213b"></path><path d="M0 441L21.5 454C43 467 86 493 128.8 502.5C171.7 512 214.3 505 257.2 505.2C300 505.3 343 512.7 385.8 510.5C428.7 508.3 471.3 496.7 514.2 496.3C557 496 600 507 642.8 496.5C685.7 486 728.3 454 771.2 453.2C814 452.3 857 482.7 878.5 497.8L900 513L900 601L878.5 601C857 601 814 601 771.2 601C728.3 601 685.7 601 642.8 601C600 601 557 601 514.2 601C471.3 601 428.7 601 385.8 601C343 601 300 601 257.2 601C214.3 601 171.7 601 128.8 601C86 601 43 601 21.5 601L0 601Z" fill="#212643"></path><path d="M0 550L21.5 541C43 532 86 514 128.8 506.8C171.7 499.7 214.3 503.3 257.2 508C300 512.7 343 518.3 385.8 523.3C428.7 528.3 471.3 532.7 514.2 536C557 539.3 600 541.7 642.8 537.3C685.7 533 728.3 522 771.2 512.2C814 502.3 857 493.7 878.5 489.3L900 485L900 601L878.5 601C857 601 814 601 771.2 601C728.3 601 685.7 601 642.8 601C600 601 557 601 514.2 601C471.3 601 428.7 601 385.8 601C343 601 300 601 257.2 601C214.3 601 171.7 601 128.8 601C86 601 43 601 21.5 601L0 601Z" fill="#252b4a"></path><path d="M0 526L21.5 534.8C43 543.7 86 561.3 128.8 566.8C171.7 572.3 214.3 565.7 257.2 562.2C300 558.7 343 558.3 385.8 557.8C428.7 557.3 471.3 556.7 514.2 556.7C557 556.7 600 557.3 642.8 558.5C685.7 559.7 728.3 561.3 771.2 554.2C814 547 857 531 878.5 523L900 515L900 601L878.5 601C857 601 814 601 771.2 601C728.3 601 685.7 601 642.8 601C600 601 557 601 514.2 601C471.3 601 428.7 601 385.8 601C343 601 300 601 257.2 601C214.3 601 171.7 601 128.8 601C86 601 43 601 21.5 601L0 601Z" fill="#2a3052"></path></svg>